<mxfile host="app.diagrams.net" modified="2021-03-18T05:07:23.331Z" agent="5.0 (Windows NT 10.0; Win64; x64) AppleWebKit/537.36 (KHTML, like Gecko) Chrome/89.0.4389.82 Safari/537.36" etag="6B-ybXyyhkwFJ1_WbtL5" version="14.4.9" type="github">
  <diagram id="g_JCi4dy_4XTtYp1OMq6" name="Page-1">
    <mxGraphModel dx="868" dy="450" grid="1" gridSize="10" guides="1" tooltips="1" connect="1" arrows="1" fold="1" page="1" pageScale="1" pageWidth="827" pageHeight="1169" math="0" shadow="0">
      <root>
        <mxCell id="0" />
        <mxCell id="1" parent="0" />
        <mxCell id="1rMzxDTMS5Z_vIxv3XcB-10" style="edgeStyle=orthogonalEdgeStyle;rounded=0;orthogonalLoop=1;jettySize=auto;html=1;exitX=0.5;exitY=1;exitDx=0;exitDy=0;entryX=0.5;entryY=0;entryDx=0;entryDy=0;" edge="1" parent="1" source="1rMzxDTMS5Z_vIxv3XcB-2">
          <mxGeometry relative="1" as="geometry">
            <mxPoint x="420" y="410" as="targetPoint" />
          </mxGeometry>
        </mxCell>
        <mxCell id="1rMzxDTMS5Z_vIxv3XcB-2" value="начало" style="rounded=1;whiteSpace=wrap;html=1;" vertex="1" parent="1">
          <mxGeometry x="360" y="320" width="120" height="60" as="geometry" />
        </mxCell>
        <mxCell id="1rMzxDTMS5Z_vIxv3XcB-11" style="edgeStyle=orthogonalEdgeStyle;rounded=0;orthogonalLoop=1;jettySize=auto;html=1;exitX=0.5;exitY=1;exitDx=0;exitDy=0;entryX=0.5;entryY=0;entryDx=0;entryDy=0;" edge="1" parent="1" target="1rMzxDTMS5Z_vIxv3XcB-6">
          <mxGeometry relative="1" as="geometry">
            <mxPoint x="420" y="470" as="sourcePoint" />
          </mxGeometry>
        </mxCell>
        <mxCell id="1rMzxDTMS5Z_vIxv3XcB-12" style="edgeStyle=orthogonalEdgeStyle;rounded=0;orthogonalLoop=1;jettySize=auto;html=1;exitX=0;exitY=0.5;exitDx=0;exitDy=0;" edge="1" parent="1" source="1rMzxDTMS5Z_vIxv3XcB-6">
          <mxGeometry relative="1" as="geometry">
            <mxPoint x="260" y="544.5" as="targetPoint" />
          </mxGeometry>
        </mxCell>
        <mxCell id="1rMzxDTMS5Z_vIxv3XcB-14" style="edgeStyle=orthogonalEdgeStyle;rounded=0;orthogonalLoop=1;jettySize=auto;html=1;exitX=1;exitY=0.5;exitDx=0;exitDy=0;entryX=0;entryY=0.5;entryDx=0;entryDy=0;" edge="1" parent="1" source="1rMzxDTMS5Z_vIxv3XcB-6">
          <mxGeometry relative="1" as="geometry">
            <mxPoint x="580" y="544.5" as="targetPoint" />
          </mxGeometry>
        </mxCell>
        <mxCell id="1rMzxDTMS5Z_vIxv3XcB-6" value="" style="rhombus;whiteSpace=wrap;html=1;" vertex="1" parent="1">
          <mxGeometry x="330" y="504.5" width="180" height="80" as="geometry" />
        </mxCell>
        <mxCell id="1rMzxDTMS5Z_vIxv3XcB-13" value="нет" style="text;html=1;align=center;verticalAlign=middle;resizable=0;points=[];autosize=1;" vertex="1" parent="1">
          <mxGeometry x="285" y="520" width="30" height="20" as="geometry" />
        </mxCell>
        <mxCell id="1rMzxDTMS5Z_vIxv3XcB-15" value="есть" style="text;html=1;align=center;verticalAlign=middle;resizable=0;points=[];autosize=1;" vertex="1" parent="1">
          <mxGeometry x="520" y="520" width="40" height="20" as="geometry" />
        </mxCell>
        <mxCell id="1rMzxDTMS5Z_vIxv3XcB-17" value="&lt;span style=&quot;background-color: rgb(255 , 255 , 255)&quot;&gt;&lt;span style=&quot;color: rgb(0 , 0 , 0) ; font-family: &amp;#34;helvetica&amp;#34; ; font-size: 12px ; font-style: normal ; font-weight: 400 ; letter-spacing: normal ; text-align: center ; text-indent: 0px ; text-transform: none ; word-spacing: 0px&quot;&gt;x &amp;lt;- c(&quot;мама мыла раму&quot;)&lt;br&gt;&lt;/span&gt;&lt;span style=&quot;font-style: normal ; font-weight: 400 ; letter-spacing: normal ; text-indent: 0px ; text-transform: none ; word-spacing: 0px ; color: rgb(51 , 51 , 51) ; font-family: &amp;#34;open sans&amp;#34; , sans-serif ; font-size: 14.44px ; text-align: left&quot;&gt;xm &amp;lt;- c(&#39;мама&#39;)&lt;/span&gt;&lt;br&gt;&lt;/span&gt;" style="rounded=0;whiteSpace=wrap;html=1;" vertex="1" parent="1">
          <mxGeometry x="335" y="410" width="170" height="60" as="geometry" />
        </mxCell>
        <mxCell id="1rMzxDTMS5Z_vIxv3XcB-22" style="edgeStyle=orthogonalEdgeStyle;rounded=0;orthogonalLoop=1;jettySize=auto;html=1;entryX=0.5;entryY=0;entryDx=0;entryDy=0;" edge="1" parent="1" source="1rMzxDTMS5Z_vIxv3XcB-18" target="1rMzxDTMS5Z_vIxv3XcB-20">
          <mxGeometry relative="1" as="geometry" />
        </mxCell>
        <mxCell id="1rMzxDTMS5Z_vIxv3XcB-18" value="Вывести&lt;br&gt;нет слово в предложении" style="shape=parallelogram;perimeter=parallelogramPerimeter;whiteSpace=wrap;html=1;fixedSize=1;" vertex="1" parent="1">
          <mxGeometry x="150" y="514.5" width="120" height="60" as="geometry" />
        </mxCell>
        <mxCell id="1rMzxDTMS5Z_vIxv3XcB-23" style="edgeStyle=orthogonalEdgeStyle;rounded=0;orthogonalLoop=1;jettySize=auto;html=1;entryX=0.5;entryY=0;entryDx=0;entryDy=0;" edge="1" parent="1" source="1rMzxDTMS5Z_vIxv3XcB-19" target="1rMzxDTMS5Z_vIxv3XcB-21">
          <mxGeometry relative="1" as="geometry" />
        </mxCell>
        <mxCell id="1rMzxDTMS5Z_vIxv3XcB-19" value="Вывести&lt;br&gt;есть слово в предложении" style="shape=parallelogram;perimeter=parallelogramPerimeter;whiteSpace=wrap;html=1;fixedSize=1;" vertex="1" parent="1">
          <mxGeometry x="570" y="514.5" width="120" height="60" as="geometry" />
        </mxCell>
        <mxCell id="1rMzxDTMS5Z_vIxv3XcB-20" value="Остановка" style="ellipse;whiteSpace=wrap;html=1;" vertex="1" parent="1">
          <mxGeometry x="130" y="600" width="160" height="50" as="geometry" />
        </mxCell>
        <mxCell id="1rMzxDTMS5Z_vIxv3XcB-21" value="&lt;span&gt;Остановка&lt;/span&gt;" style="ellipse;whiteSpace=wrap;html=1;" vertex="1" parent="1">
          <mxGeometry x="550" y="600" width="160" height="50" as="geometry" />
        </mxCell>
      </root>
    </mxGraphModel>
  </diagram>
</mxfile>
